# xmcd
#
# Track frame offsets:
#	150
#	13093
#	27973
#	40424
#	51928
#	67998
#	81474
#	95085
#	108684
#	130729
#	141637
#	153442
#
# Disc length: 2320 seconds
#
# Revision: 1
# Processed by: cddbd v1.5.1PL0 Copyright (c) Steve Scherf et al.
# Submitted via: audiograbber 1.80.04
#
DISCID=ae090e0c
DTITLE=Johnny Hooper - In the Mood
DYEAR=1900
DGENRE=Blues
TTITLE0=In the Mood
TTITLE1=American Patrol
TTITLE2=Rudy's Rock
TTITLE3=Tuxedo Junction
TTITLE4=Moonlight Serenade
TTITLE5=As Time Goes By
TTITLE6=Cherokee
TTITLE7=Take The A Train
TTITLE8=Body and Soul
TTITLE9=These Foolish Things
TTITLE10=The Birth of the Blues
TTITLE11=The Water is wide
EXTD=
EXTT0=
EXTT1=
EXTT2=
EXTT3=
EXTT4=
EXTT5=
EXTT6=
EXTT7=
EXTT8=
EXTT9=
EXTT10=
EXTT11=
PLAYORDER=
